<svg xmlns="http://www.w3.org/2000/svg" width="16" height="16" viewBox="0 0 16 16"><g fill="none" fill-rule="evenodd"><path fill="hsl(346 95% 54%)" d="M3.62 3.086c3.423-.354 2.54.501 3.423.501H8.81c.883 0 .193-.788 3.414-.501 1.885.501 3.096 4.548 2.581 7.495C14.458 12.18 14.108 13 12.342 13c-1.766 0-2.65-.856-3.533-2.567-.025-.05-1.736-.06-1.766 0C6.206 12.144 5.277 13 3.511 13s-2.12-.809-2.472-2.419c-.508-2.934.706-6.994 2.581-7.495zm-1.604 7.282C2.338 11.839 2.48 12 3.511 12c1.248 0 1.895-.496 2.634-2.007.393-.803 3.152-.795 3.553-.019.8 1.552 1.412 2.026 2.644 2.026 1.025 0 1.167-.164 1.477-1.59.449-2.571-.626-5.915-1.787-6.337-.743-.062-1.273-.064-1.627-.02-.218.028-.308.059-.374.1a7.586 7.586 0 0 0-.151.106 1.756 1.756 0 0 1-1.07.328H7.042c-.477 0-.817-.14-1.13-.413a2.405 2.405 0 0 0-.099-.087c-.022-.017-.072-.036-.266-.06-.357-.045-.92-.036-1.73.044-1.156.414-2.238 3.775-1.802 6.297z"/><rect width="2" height="2" x="10.5" y="7.5" fill="hsl(346 95% 54%)" rx="1"/><rect width="2" height="2" x="3.5" y="7.5" fill="hsl(346 95% 54%)" rx="1"/></g></svg>